<svg width="404" height="428" viewBox="0 0 404 428" fill="none" xmlns="http://www.w3.org/2000/svg">
<path d="M202.703 0C111.527 0 33.5341 57.8723 2.93957 138.04L1.6615 140.969H4.98451H27.8621H29.1401L29.7792 139.695C58.3732 72.768 125.066 25.8506 202.703 25.8506C243.42 25.8506 280.967 38.812 311.723 60.7426C310.633 64.1045 310.061 67.4685 310.061 71.1848C310.061 90.3137 325.509 106.077 344.697 106.077C348.334 106.077 351.84 105.075 355.177 104.039C363.138 115.091 370.08 127.044 375.499 139.695L376.138 140.969H377.544H400.677H404L402.722 138.04C395.949 120.025 386.531 102.821 375.243 87.4847C377.922 82.5557 380.1 77.1648 380.1 71.1848C380.1 51.9303 364.395 36.2928 345.081 36.2928C338.899 36.2928 333.37 38.3258 328.338 41.1318C293.089 15.4975 249.685 0 202.703 0ZM0 287.668L1.40588 290.342C31.9369 370.784 109.633 428 201.041 428C292.257 428 370.764 370.512 401.444 290.342L402.339 287.668H399.399H375.882H374.221L373.838 289.069C344.993 355.598 278.4 402.531 201.041 402.531C123.488 402.531 56.975 355.833 28.2455 289.069L27.8621 287.668H26.2006H3.323H0Z" fill="white" fill-opacity="0.15"/>
</svg>
