<svg width="170" height="180" viewBox="0 0 170 180" fill="none" xmlns="http://www.w3.org/2000/svg">
<path d="M85.2958 0C46.9296 0 14.1109 24.3388 1.23695 58.0542L0.699147 59.2859H2.09744H11.7241H12.2619L12.5308 58.7504C24.563 30.6034 52.6266 10.8718 85.2958 10.8718C102.429 10.8718 118.229 16.3228 131.171 25.546C130.712 26.9598 130.471 28.3746 130.471 29.9375C130.471 37.9824 136.972 44.6117 145.046 44.6117C146.576 44.6117 148.052 44.1903 149.456 43.7548C152.805 48.4029 155.727 53.4296 158.007 58.7504L158.276 59.2859H158.867H168.602H170L169.462 58.0542C166.612 50.4776 162.649 43.2426 157.899 36.7926C159.027 34.7197 159.943 32.4525 159.943 29.9375C159.943 21.8398 153.334 15.2633 145.207 15.2633C142.606 15.2633 140.28 16.1183 138.162 17.2984C123.33 6.51764 105.065 0 85.2958 0ZM0 120.982L0.591583 122.107C13.4388 155.937 46.1329 180 84.5967 180C122.979 180 156.015 155.823 168.924 122.107L169.301 120.982H168.064H158.168H157.469L157.308 121.571C145.17 149.55 117.148 169.289 84.5967 169.289C51.9628 169.289 23.9746 149.649 11.8855 121.571L11.7241 120.982H11.025H1.39829H0Z" fill="white" fill-opacity="0.04"/>
</svg>
