<svg width="43" height="45" viewBox="0 0 43 45" fill="none" xmlns="http://www.w3.org/2000/svg">
<path d="M21.5748 0C11.8704 0 3.56922 6.0847 0.312875 14.5135L0.176843 14.8215H0.530529H2.96552H3.10155L3.16957 14.6876C6.21299 7.65085 13.3114 2.71794 21.5748 2.71794C25.9086 2.71794 29.9049 4.0807 33.1784 6.38649C33.0624 6.73995 33.0016 7.09365 33.0016 7.48438C33.0016 9.4956 34.6458 11.1529 36.6881 11.1529C37.0752 11.1529 37.4483 11.0476 37.8035 10.9387C38.6508 12.1007 39.3897 13.3574 39.9665 14.6876L40.0345 14.8215H40.1841H42.6463H43L42.864 14.5135C42.1431 12.6194 41.1406 10.8107 39.9393 9.19816C40.2243 8.67992 40.4562 8.11312 40.4562 7.48438C40.4562 5.45996 38.7846 3.81583 36.7289 3.81583C36.071 3.81583 35.4825 4.02958 34.9468 4.32461C31.1952 1.62941 26.5754 0 21.5748 0ZM0 30.2455L0.149636 30.5266C3.39923 38.9843 11.6689 45 21.398 45C31.1066 45 39.4625 38.9557 42.7279 30.5266L42.8232 30.2455H42.5103H40.0073H39.8304L39.7896 30.3927C36.7196 37.3876 29.6317 42.3222 21.398 42.3222C13.1435 42.3222 6.06417 37.4123 3.00633 30.3927L2.96552 30.2455H2.78868H0.353686H0Z" fill="white"/>
</svg>
