<svg width="114" height="120" viewBox="0 0 114 120" fill="none" xmlns="http://www.w3.org/2000/svg">
<path d="M57.1984 0C31.4704 0 9.46259 16.2259 0.829483 38.7028L0.46884 39.524H1.40652H7.86207H8.22272L8.40304 39.1669C16.4716 20.4023 35.2908 7.24784 57.1984 7.24784C68.6879 7.24784 79.2829 10.8819 87.9614 17.0306C87.6538 17.9732 87.4926 18.9164 87.4926 19.9583C87.4926 25.3216 91.8516 29.7411 97.2661 29.7411C98.2924 29.7411 99.2817 29.4602 100.223 29.1699C102.47 32.2686 104.429 35.6197 105.958 39.1669L106.138 39.524H106.535H113.062H114L113.639 38.7028C111.728 33.6517 109.071 28.8284 105.885 24.5284C106.641 23.1464 107.256 21.635 107.256 19.9583C107.256 14.5599 102.824 10.1755 97.3743 10.1755C95.6301 10.1755 94.0698 10.7455 92.6498 11.5323C82.7035 4.34509 70.4557 0 57.1984 0ZM0 80.6546L0.396709 81.4044C9.01191 103.958 30.9362 120 56.7295 120C82.4685 120 104.622 103.882 113.279 81.4044L113.531 80.6546H112.702H106.066H105.597L105.489 81.0473C97.3495 99.7003 78.5583 112.859 56.7295 112.859C34.8457 112.859 16.0771 99.7663 7.97026 81.0473L7.86207 80.6546H7.39323H0.937679H0Z" fill="#E3E6EB" fill-opacity="0.2"/>
</svg>
