<svg width="121" height="64" viewBox="0 0 121 64" fill="none" xmlns="http://www.w3.org/2000/svg">
<g clip-path="url(#clip0_4_29)">
<path d="M60.5945 -6.10352e-05C47.1029 -6.10352e-05 35.562 8.65374 31.0348 20.6414L30.8457 21.0794H31.3374H34.7227H34.9118L35.0064 20.889C39.2376 10.8811 49.1063 3.86546 60.5945 3.86546C66.6196 3.86546 72.1756 5.8036 76.7266 9.08295C76.5653 9.58565 76.4808 10.0887 76.4808 10.6444C76.4808 13.5048 78.7666 15.8619 81.6059 15.8619C82.1442 15.8619 82.6629 15.712 83.1567 15.5572C84.3346 17.2099 85.3619 18.9971 86.1638 20.889L86.2583 21.0794H86.4664H89.8895H90.3812L90.1921 20.6414C89.1899 17.9475 87.7962 15.3751 86.126 13.0818C86.5223 12.3447 86.8446 11.5386 86.8446 10.6444C86.8446 7.76521 84.5207 5.4269 81.6627 5.4269C80.748 5.4269 79.9298 5.7309 79.1852 6.15049C73.9694 2.31732 67.5466 -6.10352e-05 60.5945 -6.10352e-05ZM117.558 18.8896V19.1752V24.4879H113.681C112.701 24.4879 111.76 24.6971 110.882 25.0782C110.87 25.0829 110.838 25.0735 110.825 25.0782V25.1163C109.975 25.4818 109.207 26.0305 108.556 26.6777H108.499C107.839 27.3284 107.295 28.1009 106.91 28.9818C106.541 29.858 106.362 30.8349 106.362 31.8571C106.362 32.8569 106.543 33.7785 106.91 34.6753C107.301 35.5646 107.828 36.3974 108.499 37.0746C109.171 37.748 109.937 38.246 110.825 38.6361L110.882 38.6741C111.772 39.0463 112.687 39.2264 113.681 39.2264C114.675 39.2264 115.609 39.0462 116.499 38.6741H116.537V38.6361C117.425 38.2456 118.173 37.7504 118.825 37.0746C119.497 36.3963 120.009 35.5679 120.376 34.6753C120.767 33.7769 121 32.859 121 31.8571V19.1752V18.8896H120.66H117.898H117.558H117.558ZM7.30009 24.4879C6.36641 24.4879 5.44458 24.7099 4.53892 25.0782C3.64588 25.4287 2.83178 25.9592 2.11816 26.6777C1.40267 27.3965 0.877525 28.1781 0.52954 29.077C0.182088 29.9703 0 30.9006 0 31.8571C0 32.7957 0.182421 33.7448 0.52954 34.6372C0.877529 35.5345 1.40289 36.3544 2.11816 37.0746C2.83049 37.7902 3.64834 38.3034 4.53892 38.6741C5.44351 39.021 6.36899 39.2264 7.30009 39.2264C8.23268 39.2264 9.13765 39.0218 10.0234 38.6741C10.9342 38.3037 11.7685 37.7914 12.482 37.0746L13.4087 36.1035L13.6546 35.8559L13.4655 35.6084L11.5175 33.6661L11.2716 33.4186L11.0447 33.6661L10.0613 34.6372C9.69537 35.0244 9.28869 35.3211 8.81306 35.5132C8.3285 35.7078 7.82202 35.7988 7.30009 35.7988C6.21321 35.7988 5.31751 35.4212 4.53892 34.6372C4.15337 34.2491 3.8621 33.8045 3.66896 33.3234C3.47643 32.8336 3.38528 32.3592 3.38528 31.8571C3.38528 31.355 3.47666 30.8215 3.66896 30.3338C3.86144 29.8543 4.15566 29.4456 4.53892 29.077C4.92612 28.6871 5.32878 28.4319 5.80603 28.2392C6.29019 28.0442 6.80144 27.9535 7.30009 27.9535C7.79874 27.9535 8.27237 28.0442 8.75633 28.2392C9.23482 28.4319 9.67378 28.6869 10.0613 29.077L11.0447 30.0481L11.2716 30.2957L11.5175 30.0481L13.4655 28.1059L13.6546 27.8583L13.4087 27.6679L12.482 26.6777C11.7672 25.958 10.9366 25.4283 10.0234 25.0782C9.13656 24.709 8.23525 24.4879 7.30009 24.4879ZM21.8814 24.4879C20.9469 24.4879 19.9903 24.708 19.0824 25.0782C18.1889 25.4289 17.4127 25.9595 16.6994 26.6777C15.986 27.3961 15.459 28.1777 15.1108 29.077C14.7655 29.9689 14.5813 30.9196 14.5813 31.8571C14.5813 32.7961 14.7664 33.725 15.1108 34.6372C15.4589 35.5347 15.9854 36.3573 16.6994 37.0746C17.3925 37.7725 18.1947 38.3039 19.0824 38.6741C19.9727 39.0458 20.9066 39.2264 21.8814 39.2264C22.8561 39.2264 23.7536 39.0459 24.6425 38.6741C25.5336 38.3039 26.3325 37.7723 27.0255 37.0746L27.99 36.1035L28.2358 35.8559L27.99 35.6084L26.0609 33.6661L25.8151 33.4186L25.626 33.6661L24.6425 34.6372C24.0194 35.2632 23.2981 35.6259 22.4676 35.7607C21.8302 35.8532 21.2574 35.6645 20.671 35.4561L27.99 28.1059L28.2358 27.8583L27.99 27.6679L27.0255 26.6777C26.311 25.9583 25.5183 25.4285 24.6047 25.0782C23.7157 24.7071 22.8158 24.4879 21.8814 24.4879ZM36.4248 24.4879C35.429 24.4879 34.4985 24.6841 33.6069 25.0782C32.7195 25.4509 31.9166 26.001 31.2429 26.6777C30.5926 27.3341 30.0802 28.0915 29.6921 28.9818C29.321 29.8584 29.1625 30.8353 29.1625 31.8571V38.8836V39.2264H29.4462H32.2452H32.5478V38.8836V31.8571C32.5478 31.31 32.6406 30.7958 32.8315 30.3338C33.045 29.8454 33.3193 29.4237 33.6636 29.077C34.0292 28.7075 34.4523 28.4323 34.9118 28.2392C35.3914 28.0272 35.8853 27.9535 36.4248 27.9535C36.9643 27.9535 37.4979 28.0275 37.9756 28.2392C38.455 28.4322 38.844 28.7126 39.186 29.077L39.2238 29.1151C39.5854 29.4592 39.8623 29.8515 40.0559 30.3338C40.2646 30.794 40.3396 31.3139 40.3396 31.8571V38.8836V39.2264H40.68H43.4412H43.7816V38.8836V31.8571C43.7816 30.8329 43.5502 29.8594 43.1575 28.9818C42.7885 28.0872 42.2813 27.3356 41.6067 26.6777C40.9332 26.0012 40.1681 25.4509 39.2805 25.0782C38.4068 24.6826 37.4399 24.4879 36.4248 24.4879ZM52.1219 24.4879C51.1867 24.4879 50.2664 24.7099 49.3607 25.0782C48.4661 25.4287 47.6522 25.959 46.94 26.6777C46.2282 27.396 45.6807 28.1775 45.3324 29.077C44.9868 29.9697 44.8029 30.9002 44.8029 31.8571C44.8029 32.7961 44.9872 33.7454 45.3324 34.6372C45.6807 35.5351 46.2285 36.355 46.94 37.0746C47.6509 37.7904 48.4685 38.3034 49.3607 38.6741C50.2653 39.021 51.1893 39.2264 52.1219 39.2264C53.053 39.2264 53.9405 39.0218 54.8263 38.6741C55.7371 38.3037 56.5336 37.7914 57.2471 37.0746H57.3038L58.2116 36.1035L58.4575 35.8559L58.2116 35.6084L56.3204 33.6661L56.0935 33.4186L55.8476 33.6661L54.8831 34.6372C54.5154 35.0248 54.093 35.321 53.616 35.5132C53.135 35.7075 52.6438 35.7988 52.1219 35.7988C51.035 35.7988 50.1375 35.4208 49.3607 34.6372C48.9729 34.2497 48.6824 33.8044 48.4908 33.3234C48.297 32.834 48.1882 32.3592 48.1882 31.8571C48.1882 31.355 48.2972 30.821 48.4908 30.3338C48.6818 29.8544 48.9184 29.445 49.304 29.077H49.3607C49.7461 28.6875 50.1302 28.4319 50.6089 28.2392C51.0911 28.0444 51.6232 27.9535 52.1219 27.9535C52.6206 27.9535 53.0751 28.0442 53.5592 28.2392C54.0377 28.4319 54.4938 28.6865 54.8831 29.077L55.8476 30.0481L56.0935 30.2957L56.3204 30.0481L58.2116 28.1059L58.4575 27.8583L58.2116 27.6679L57.3038 26.6777C56.589 25.958 55.7395 25.4283 54.8263 25.0782C53.9395 24.709 53.0556 24.4879 52.1219 24.4879ZM66.6464 24.4879C65.6503 24.4879 64.7197 24.6843 63.8285 25.0782C62.9392 25.4494 62.1937 25.999 61.5212 26.6777C60.8709 27.3325 60.302 28.0912 59.9137 28.9818C59.5444 29.8583 59.3842 30.8368 59.3842 31.8571C59.3842 32.858 59.546 33.7783 59.9137 34.6753C60.3016 35.5633 60.8731 36.3993 61.5212 37.0746C62.1923 37.7503 62.9414 38.2447 63.8285 38.6361V38.6741C64.7187 39.0464 65.6527 39.2264 66.6464 39.2264C67.661 39.2264 68.6299 39.0477 69.5022 38.6741V38.6361C70.3894 38.2446 71.1575 37.7501 71.8284 37.0746C72.5026 36.3974 73.0673 35.5674 73.4359 34.6753C73.8251 33.7772 74.0033 32.8605 74.0033 31.8571C74.0033 30.8344 73.8269 29.8594 73.4359 28.9818C73.0669 28.0872 72.5049 27.3343 71.8284 26.6777C71.1561 25.9992 70.3917 25.4494 69.5022 25.0782C68.6288 24.6828 67.6634 24.4879 66.6464 24.4879ZM79.5256 24.4879C78.9025 24.4879 78.3067 24.6409 77.7479 24.8878C77.213 25.1135 76.7322 25.3962 76.3295 25.8018C75.9267 26.2073 75.6086 26.7126 75.3649 27.268C75.1421 27.8095 75.0245 28.3965 75.0245 29.0199C75.0245 29.6433 75.1441 30.229 75.3649 30.7908V30.8289C75.6083 31.3603 75.9323 31.8149 76.3295 32.238C76.7296 32.6391 77.2157 32.9835 77.7479 33.2281C78.3049 33.4525 78.9065 33.5709 79.5256 33.5709H85.1425C85.4892 33.5709 85.7059 33.6811 85.9179 33.8946C86.1322 34.1116 86.2583 34.3509 86.2583 34.6753C86.2583 35.0236 86.1285 35.244 85.9179 35.4561C85.7059 35.6707 85.4892 35.7988 85.1425 35.7988H76.7266H76.3862V36.1035V38.8836V39.2264H76.7266H85.1425C85.7617 39.2264 86.363 39.1099 86.9014 38.8836C87.4513 38.6383 87.8982 38.3162 88.3008 37.9125C88.7228 37.486 89.0415 36.9879 89.2654 36.4462C89.5107 35.8834 89.6625 35.3027 89.6625 34.6753C89.6625 34.048 89.5126 33.4671 89.2654 32.9235C89.0416 32.3586 88.7292 31.8648 88.3008 31.4572C87.9118 31.0655 87.4293 30.7655 86.9014 30.5432C86.8802 30.5343 86.8659 30.4955 86.8446 30.4861V30.5432C86.3163 30.3071 85.7492 30.1433 85.1425 30.1433H79.5256C79.2045 30.1433 78.9629 30.0731 78.7502 29.8577C78.5296 29.6189 78.4666 29.3424 78.4666 29.0199C78.4666 28.6973 78.5352 28.4557 78.7502 28.2392C78.9629 28.0238 79.2045 27.9535 79.5256 27.9535H87.9605H88.3009V27.6108V24.8306V24.4879H87.9605H79.5256H79.5256ZM90.7216 24.4879V24.8306V31.8571C90.7216 32.8584 90.8834 33.7798 91.2512 34.6753C91.6403 35.5642 92.1521 36.3976 92.8019 37.0746C93.4729 37.7486 94.2989 38.2461 95.1849 38.6361V38.6741C96.0747 39.0462 96.9883 39.2264 97.9839 39.2264C98.9973 39.2264 99.9662 39.0475 100.84 38.6741V38.6361C101.724 38.246 102.495 37.7484 103.166 37.0746C103.838 36.3964 104.349 35.5698 104.717 34.6753C105.108 33.7782 105.303 32.8605 105.303 31.8571V24.8306V24.4879H105.019H102.201H101.918V24.8306V31.8571C101.918 32.4009 101.789 32.8794 101.577 33.3614C101.385 33.8453 101.109 34.2705 100.745 34.6372C100.401 34.9852 100.021 35.2983 99.5347 35.5132C99.0533 35.707 98.5257 35.7988 97.9839 35.7988C97.4568 35.7988 96.9564 35.6953 96.4898 35.5132C96.4753 35.5069 96.4475 35.5194 96.4331 35.5132C95.98 35.3003 95.5835 34.982 95.2227 34.6372C94.8875 34.2749 94.6195 33.84 94.4095 33.3614C94.217 32.8768 94.1069 32.4043 94.1069 31.8571V24.8306V24.4879H93.7665H91.0053H90.7216ZM21.6922 27.9345C22.1649 27.9569 22.6179 28.0881 23.0539 28.2392C22.81 28.4798 22.5696 28.6828 22.2218 29.0199C21.7025 29.5427 21.1575 30.093 20.5764 30.6765L18.9878 32.3522C18.6705 32.6727 18.4665 32.8583 18.2502 33.0758C18.1128 32.6778 17.9665 32.2863 17.9665 31.8571C17.9665 30.7644 18.3043 29.859 19.0824 29.077C19.7038 28.4513 20.3949 28.0703 21.2005 27.9535C21.3626 27.9309 21.5347 27.927 21.6922 27.9345ZM66.6464 27.9535C67.1859 27.9535 67.7201 28.0263 68.1972 28.2392C68.6761 28.4306 69.0656 28.7126 69.4076 29.077H69.4643C69.825 29.4215 70.0841 29.8505 70.2775 30.3338C70.4848 30.7925 70.5801 31.3139 70.5801 31.8571C70.5801 32.4003 70.4867 32.8782 70.2775 33.3614C70.0835 33.8447 69.8287 34.307 69.4643 34.6753C69.1199 35.0221 68.6836 35.2983 68.1972 35.5132C67.7179 35.7069 67.1898 35.7988 66.6464 35.7988C66.1046 35.7988 65.6316 35.7068 65.1523 35.5132C64.6646 35.2977 64.2538 34.9879 63.8852 34.6372C63.5495 34.2731 63.2256 33.8393 63.0153 33.3614H63.0531C62.8606 32.8768 62.7694 32.4043 62.7694 31.8571C62.7694 31.31 62.8623 30.7939 63.0531 30.3338H63.0153C63.2304 29.8435 63.5409 29.4237 63.8852 29.077C64.2511 28.7086 64.6723 28.431 65.1523 28.2392C65.6295 28.0263 66.1086 27.9535 66.6464 27.9535H66.6464ZM113.681 27.9535H117.558V31.8571C117.558 32.3992 117.484 32.8791 117.274 33.3614C117.08 33.8461 116.768 34.2727 116.404 34.6372C116.06 34.9852 115.68 35.2983 115.194 35.5132C114.738 35.7062 114.223 35.7988 113.681 35.7988C113.152 35.7988 112.653 35.6963 112.187 35.5132C112.173 35.5069 112.144 35.5194 112.13 35.5132C111.658 35.2999 111.241 34.9802 110.882 34.6372C110.547 34.2768 110.26 33.8402 110.05 33.3614C109.857 32.8768 109.766 32.4026 109.766 31.8571C109.766 31.31 109.859 30.7937 110.05 30.3338C110.265 29.8422 110.537 29.424 110.882 29.077C111.248 28.7096 111.65 28.4325 112.13 28.2392H112.187C112.665 28.0275 113.14 27.9535 113.681 27.9535ZM30.5999 43.0157L30.8079 43.4156C35.3257 55.4443 46.8227 63.9999 60.3487 63.9999C73.8462 63.9999 85.4631 55.4035 90.0029 43.4156L90.1353 43.0157H89.7004H86.2205H85.9747L85.9179 43.2252C81.6497 53.1734 71.7957 60.1915 60.3487 60.1915C48.8728 60.1915 39.0307 53.2086 34.7795 43.2252L34.7227 43.0157H34.4769H31.0916H30.5999Z" fill="white"/>
<path d="M81.6627 7.86426C80.1528 7.86426 78.9015 9.0686 78.9015 10.5873C78.9015 12.1059 80.1529 13.3293 81.6627 13.3293C83.174 13.3293 84.3671 12.1059 84.3671 10.5873C84.3671 9.0686 83.174 7.86426 81.6627 7.86426Z" fill="#F9A41E"/>
</g>
<defs>
<clipPath id="clip0_4_29">
<rect width="121" height="64" fill="white"/>
</clipPath>
</defs>
</svg>
