<svg width="260" height="436" viewBox="0 0 260 436" fill="none" xmlns="http://www.w3.org/2000/svg">
<g clip-path="url(#clip0_52_684)">
<path d="M232.623 36.3347L196.125 72.6653L205.251 81.75L232.623 54.5L260 81.75L260 63.5847L232.623 36.3347Z" fill="white" fill-opacity="0.05"/>
<path d="M196.125 181.67L205.251 190.75L232.623 163.5L260 190.75L260 172.58L232.623 145.33L196.125 181.67Z" fill="white" fill-opacity="0.05"/>
<path d="M196.125 290.665L205.251 299.75L232.623 272.5L260 299.75L260 281.585L232.623 254.335L196.125 290.665Z" fill="white" fill-opacity="0.05"/>
<path d="M196.125 399.669L205.251 408.75L232.623 381.5L260 408.75L260 390.585L232.623 363.335L196.125 399.669Z" fill="white" fill-opacity="0.05"/>
<path d="M205.251 208.915L159.627 163.5L104.873 218L77.4963 190.75L68.375 199.831L104.873 236.165L159.627 181.67L205.251 227.085L232.623 199.831L260 227.085L260 208.915L232.623 181.67L205.251 208.915Z" fill="white" fill-opacity="0.05"/>
<path d="M214.376 -7.56381e-07L196.125 4.14057e-08L205.251 9.08472L214.376 -7.56381e-07Z" fill="white" fill-opacity="0.05"/>
<path d="M260 -3.5749e-07L250.874 4.14057e-08L260 9.08472L260 -3.5749e-07Z" fill="white" fill-opacity="0.05"/>
<path d="M123.124 -1.34107e-06L86.6219 2.54504e-07L104.873 18.1653L123.124 -1.34107e-06Z" fill="white" fill-opacity="0.05"/>
<path d="M232.627 -1.16015e-05L232.623 -1.16014e-05L186.999 45.4153L159.627 18.1653L104.873 72.6653L77.4963 45.4153L31.8768 90.8305L-22.8768 36.3347L-59.375 72.6653L-50.2494 81.75L-22.8768 54.5L31.8768 109L77.4963 63.5847L104.873 90.8305L159.627 36.3347L186.999 63.5847L232.623 18.1652L260 45.4152L260 27.25L232.627 -1.16015e-05Z" fill="white" fill-opacity="0.05"/>
<path d="M186.999 154.42L159.627 127.17L104.873 181.67L77.4963 154.42L31.8768 199.83L-22.8768 145.331L-59.375 181.67L-50.2494 190.75L-22.8768 163.5L31.8768 218L77.4963 172.58L104.873 199.83L159.627 145.33L186.999 172.58L232.623 127.17L260 154.42L260 136.25L232.623 109L186.999 154.42Z" fill="white" fill-opacity="0.05"/>
<path d="M205.251 317.915L159.623 272.5L104.873 327L77.5006 299.75L68.375 308.835L104.873 345.165L159.623 290.665L205.251 336.085L232.623 308.835L260 336.085L260 317.915L232.623 290.665L205.251 317.915Z" fill="white" fill-opacity="0.05"/>
<path d="M186.999 372.419L159.627 345.165L104.873 399.669L77.4963 372.419L31.8768 417.831L-22.8768 363.335L-59.375 399.669L-50.2494 408.75L-22.8768 381.5L31.8768 436L77.4963 390.585L104.873 417.831L159.627 363.335L186.999 390.585L232.623 345.165L260 372.415L260 354.25L232.623 327L186.999 372.419Z" fill="white" fill-opacity="0.05"/>
<path d="M-150.627 218L-177.999 190.75L-187.125 199.831L-150.627 236.165L-95.8774 181.67L-50.2494 227.085L-22.8768 199.83L31.8768 254.335L59.2494 227.085L104.873 272.5L159.627 218L186.999 245.25L196.125 236.165L159.627 199.83L104.873 254.335L59.2494 208.915L31.8768 236.165L-22.8768 181.67L-50.2494 208.915L-95.8774 163.5L-150.627 218Z" fill="white" fill-opacity="0.05"/>
<path d="M31.8768 36.3347L59.2494 9.08474L104.873 54.5L159.623 -6.59837e-06L141.376 -5.80077e-06L104.873 36.3347L68.375 -2.60981e-06L50.1238 -1.81203e-06L31.8768 18.1653L13.6256 -2.1664e-07L-4.62561 5.81145e-07L31.8768 36.3347Z" fill="white" fill-opacity="0.05"/>
<path d="M186.999 27.25L196.125 18.1653L177.874 -5.07028e-07L159.627 2.90573e-07L186.999 27.25Z" fill="white" fill-opacity="0.05"/>
<path d="M205.251 99.9152L159.627 54.4999L104.873 109L77.4963 81.7499L68.375 90.8304L104.873 127.169L159.627 72.6652L205.251 118.08L232.623 90.8304L260 118.08L260 99.9152L232.623 72.6652L205.251 99.9152Z" fill="white" fill-opacity="0.05"/>
<path d="M31.8726 127.165L-22.8768 72.6653L-50.2494 99.9153L-95.8732 54.5L-150.627 109L-177.999 81.75L-187.125 90.8305L-150.627 127.165L-95.8732 72.6653L-50.2494 118.085L-22.8768 90.8305L31.8726 145.335L59.2494 118.085L104.873 163.5L159.623 109L186.999 136.25L196.125 127.165L159.623 90.8305L104.873 145.335L59.2494 99.9153L31.8726 127.165Z" fill="white" fill-opacity="0.05"/>
<path d="M186.999 263.415L159.627 236.165L104.873 290.665L77.4963 263.415L31.8768 308.835L-22.8768 254.335L-59.375 290.665L-50.2494 299.75L-22.8768 272.5L31.8768 327L77.4963 281.585L104.873 308.835L159.627 254.335L186.999 281.585L232.623 236.165L260 263.415L260 245.25L232.623 218L186.999 263.415Z" fill="white" fill-opacity="0.05"/>
<path d="M-150.627 327L-177.999 299.75L-187.125 308.835L-150.627 345.165L-95.8732 290.665L-50.2494 336.085L-22.8768 308.835L31.8726 363.335L59.2494 336.085L104.873 381.5L159.623 327L186.999 354.25L196.125 345.165L159.623 308.835L104.873 363.335L59.2494 317.915L31.8726 345.165L-22.8768 290.665L-50.2494 317.915L-95.8732 272.5L-150.627 327Z" fill="white" fill-opacity="0.05"/>
<path d="M-22.8768 399.665L-50.2494 426.919L-95.8732 381.5L-150.623 436L-132.376 436L-95.8732 399.665L-59.375 436L-41.1238 436L-22.8768 417.835L-4.6256 436L13.6256 436L-22.8768 399.665Z" fill="white" fill-opacity="0.05"/>
<path d="M-177.999 63.5848L-150.623 90.8305L-95.8774 36.3348L-68.5006 63.5848L-22.8726 18.1653L31.8726 72.6653L68.3708 36.3348L59.2494 27.2458L31.8726 54.5L-22.8726 1.82645e-05L-68.5006 45.411L-95.8774 18.1653L-150.623 72.6653L-177.999 45.411L-223.627 90.8305L-251 63.5805L-251 81.75L-223.627 109.004L-177.999 63.5848Z" fill="white" fill-opacity="0.05"/>
<path d="M-177.999 172.58L-150.623 199.83L-95.8774 145.335L-68.5006 172.58L-22.8726 127.17L31.8726 181.665L68.3708 145.335L59.2494 136.25L31.8726 163.5L-22.8726 109.004L-68.5006 154.42L-95.8774 127.17L-150.623 181.665L-177.999 154.42L-223.627 199.83L-251 172.585L-251 190.75L-223.627 218L-177.999 172.58Z" fill="white" fill-opacity="0.05"/>
<path d="M-223.627 436L-177.999 390.585L-150.623 417.835L-95.8774 363.331L-68.5006 390.585L-22.8726 345.165L31.8726 399.669L68.375 363.33L59.2537 354.25L31.8768 381.504L-22.8726 327L-68.5006 372.419L-95.8774 345.165L-150.623 399.669L-177.999 372.419L-223.627 417.835L-251 390.585L-251 408.75L-223.627 436Z" fill="white" fill-opacity="0.05"/>
<path d="M-177.999 281.585L-150.627 308.835L-95.8732 254.335L-68.5006 281.585L-22.8768 236.165L31.8726 290.665L68.375 254.335L59.2494 245.25L31.8726 272.5L-22.8768 218L-68.5006 263.415L-95.8732 236.165L-150.627 290.665L-177.999 263.415L-223.623 308.835L-251 281.585L-251 299.75L-223.623 327L-177.999 281.585Z" fill="white" fill-opacity="0.05"/>
</g>
<defs>
<clipPath id="clip0_52_684">
<rect width="436" height="511" fill="white" transform="translate(-251 436) rotate(-90)"/>
</clipPath>
</defs>
</svg>
