<?xml version="1.0" standalone="no"?>
<!DOCTYPE svg PUBLIC "-//W3C//DTD SVG 20010904//EN"
 "http://www.w3.org/TR/2001/REC-SVG-20010904/DTD/svg10.dtd">
<svg version="1.0" xmlns="http://www.w3.org/2000/svg"
 width="656.000000pt" height="656.000000pt" viewBox="0 0 656.000000 656.000000"
 preserveAspectRatio="xMidYMid meet">
<metadata>
Created by potrace 1.14, written by Peter Selinger 2001-2017
</metadata>
<g transform="translate(0.000000,656.000000) scale(0.100000,-0.100000)"
fill="#000000" stroke="none">
<path d="M221 6543 c-85 -29 -152 -89 -193 -171 l-23 -47 -3 -3015 c-1 -1978
1 -3031 8 -3062 22 -105 114 -201 220 -232 51 -15 330 -16 3075 -14 l3020 3
49 25 c68 34 119 85 153 150 l28 55 0 3045 0 3045 -25 49 c-45 88 -110 143
-199 170 -50 15 -322 16 -3060 16 -2689 -1 -3011 -3 -3050 -17z"/>
</g>
</svg>
